<svg xmlns="http://www.w3.org/2000/svg" viewBox="0 0 32 32">
<defs>
<linearGradient id="bg" x1="0" y1="0" x2="1" y2="1">
<stop offset="0%" stop-color="#7C3AED"/>
<stop offset="100%" stop-color="#D946EF"/>
</linearGradient>
</defs>
<rect width="32" height="32" rx="7" fill="url(#bg)"/>
<rect x="7" y="8" width="18" height="12.5" rx="1.5" fill="#E0D6EE" stroke="#B8A8D4" stroke-width="0.4"/>
<rect x="8.5" y="9.3" width="15" height="10" rx="0.8" fill="#A020C0"/>
<circle cx="16" cy="9.8" r="0.5" fill="rgba(255,255,255,0.3)"/>
<rect x="7" y="20.5" width="18" height="1.5" rx="0.5" fill="#D6CBEA"/>
<rect x="5.5" y="22" width="21" height="1" rx="0.5" fill="#D6CBEA"/>
<path d="M24,5 L25,7.5 L27.5,8.5 L25,9.5 L24,12 L23,9.5 L20.5,8.5 L23,7.5 Z" fill="rgba(255,255,255,0.9)"/>
<path d="M8,6 L8.8,8 L10.8,8.8 L8.8,9.5 L8,11.5 L7.2,9.5 L5.2,8.8 L7.2,8 Z" fill="rgba(255,255,255,0.65)"/>
<path d="M26,20 L26.5,21.2 L27.8,21.7 L26.5,22.2 L26,23.5 L25.5,22.2 L24.2,21.7 L25.5,21.2 Z" fill="rgba(255,255,255,0.5)"/>
</svg>
